<svg width="142" height="566" viewBox="0 0 142 566" fill="none" xmlns="http://www.w3.org/2000/svg">
<g clip-path="url(#clip0_426_823)">
<path d="M-2.58594 379.644C-2.58594 340.822 0.225456 307.604 5.84824 279.989C11.471 251.973 19.102 230.561 28.741 215.753C38.3801 200.945 49.3579 193.541 61.6745 193.541C72.6523 193.541 82.0236 199.144 89.7884 210.35C97.821 221.156 103.845 235.564 107.862 253.574H109.87V79.4773H142V559.744H109.87V505.714H107.862C103.845 523.724 97.821 538.332 89.7884 549.538C82.0236 560.344 72.6523 565.747 61.6745 565.747C49.3579 565.747 38.3801 558.343 28.741 543.535C19.102 528.727 11.471 507.515 5.84824 479.899C0.225456 451.884 -2.58594 418.465 -2.58594 379.644ZM111.878 379.644C111.878 339.221 108.129 307.604 100.632 284.791C93.4031 261.979 83.0946 250.572 69.707 250.572C56.5872 250.572 46.2788 261.979 38.7817 284.791C31.2847 307.604 27.5361 339.221 27.5361 379.644C27.5361 419.666 31.2847 451.284 38.7817 474.496C46.2788 497.309 56.5872 508.715 69.707 508.715C83.0946 508.715 93.4031 497.309 100.632 474.496C108.129 451.284 111.878 419.666 111.878 379.644Z" fill="black"/>
</g>
<defs>
<clipPath id="clip0_426_823">
<rect width="142" height="566" fill="white" transform="translate(0 -0.25293)"/>
</clipPath>
</defs>
</svg>
