<svg width="1020" height="598" viewBox="0 0 1020 598" fill="none" xmlns="http://www.w3.org/2000/svg">
<path d="M1019.62 298.04C1019.62 464.135 990.689 585.99 934.31 585.99H878.179V11.6422H934.31C991.678 11.6422 1019.62 128.064 1019.62 298.04ZM992.667 298.04C992.667 212.664 983.023 86.9283 936.041 86.9283H905.132V510.704H936.041C982.529 510.704 992.667 381.864 992.667 298.04Z" fill="black"/>
<path d="M865.701 585.99H756.405V11.6422H783.358V510.704H865.701V585.99Z" fill="black"/>
<path d="M740.362 585.99H710.936L672.608 335.295H635.022V585.99H608.069V11.6422H675.575C709.205 11.6422 737.147 46.5687 737.147 173.857C737.147 262.337 721.321 307.354 700.056 325.205L740.362 585.99ZM709.699 173.857C709.699 83.0476 682.499 87.7045 679.532 87.7045H635.022V260.009H679.532C682.499 260.009 709.699 265.442 709.699 173.857Z" fill="black"/>
<path d="M589.591 298.816C589.591 468.016 565.111 597.632 509.227 597.632C453.343 597.632 428.862 468.016 428.862 298.816C428.862 129.616 455.815 0 509.227 0C565.111 0 589.591 129.616 589.591 298.816ZM562.144 298.816C562.144 178.513 548.296 76.0623 509.227 76.0623C466.448 76.0623 456.31 178.513 456.31 298.816C456.31 412.909 470.157 522.346 509.227 522.346C548.296 522.346 562.144 412.909 562.144 298.816Z" fill="black"/>
<path d="M425.182 12.4183L387.102 585.99H356.193L318.854 124.959L281.516 585.99H250.606L212.526 12.4183H238.49L266.926 452.493L302.287 12.4183H335.422L370.782 452.493L399.219 12.4183H425.182Z" fill="black"/>
<g clip-path="url(#clip0_428_831)">
<path d="M-2.58594 411.529C-2.58594 372.707 0.225456 339.489 5.84824 311.874C11.471 283.858 19.102 262.446 28.741 247.638C38.3801 232.83 49.3579 225.426 61.6745 225.426C72.6523 225.426 82.0236 231.029 89.7884 242.235C97.821 253.041 103.845 267.449 107.862 285.459H109.87V111.362H142V591.629H109.87V537.599H107.862C103.845 555.609 97.821 570.217 89.7884 581.423C82.0236 592.229 72.6523 597.632 61.6745 597.632C49.3579 597.632 38.3801 590.228 28.741 575.42C19.102 560.612 11.471 539.4 5.84824 511.784C0.225456 483.769 -2.58594 450.35 -2.58594 411.529ZM111.878 411.529C111.878 371.106 108.129 339.489 100.632 316.676C93.4031 293.864 83.0946 282.457 69.707 282.457C56.5872 282.457 46.2788 293.864 38.7817 316.676C31.2847 339.489 27.5361 371.106 27.5361 411.529C27.5361 451.551 31.2847 483.169 38.7817 506.381C46.2788 529.194 56.5872 540.6 69.707 540.6C83.0946 540.6 93.4031 529.194 100.632 506.381C108.129 483.169 111.878 451.551 111.878 411.529Z" fill="black"/>
</g>
<defs>
<clipPath id="clip0_428_831">
<rect width="142" height="566" fill="white" transform="translate(0 31.6321)"/>
</clipPath>
</defs>
</svg>
